<svg width="42" height="42" viewBox="0 0 42 42" fill="none" xmlns="http://www.w3.org/2000/svg">
<path d="M35 21V37.1282C35 37.8858 34.3858 38.5 33.6282 38.5H8.37178C7.61417 38.5 7 37.8858 7 37.1282V21" stroke="#4E61F6" stroke-width="3.42944" stroke-linecap="round" stroke-linejoin="round"/>
<path d="M37.1282 12.25H4.87177C4.11416 12.25 3.5 12.8642 3.5 13.6218V19.6282C3.5 20.3858 4.11416 21 4.87177 21H37.1282C37.8858 21 38.5 20.3858 38.5 19.6282V13.6218C38.5 12.8642 37.8858 12.25 37.1282 12.25Z" stroke="#4E61F6" stroke-width="3.42944" stroke-linecap="round" stroke-linejoin="round"/>
<path d="M21 38.5V12.25" stroke="#4E61F6" stroke-width="3.42944" stroke-linecap="round" stroke-linejoin="round"/>
<path d="M21 12.25H13.125C11.9647 12.25 10.8519 11.7891 10.0314 10.9686C9.21094 10.1481 8.75 9.03532 8.75 7.875C8.75 6.71468 9.21094 5.60188 10.0314 4.78141C10.8519 3.96094 11.9647 3.5 13.125 3.5C19.25 3.5 21 12.25 21 12.25Z" stroke="#FFAA00" stroke-width="3.42944" stroke-linecap="round" stroke-linejoin="round"/>
<path d="M21 12.25H28.875C30.0353 12.25 31.1481 11.7891 31.9686 10.9686C32.7891 10.1481 33.25 9.03532 33.25 7.875C33.25 6.71468 32.7891 5.60188 31.9686 4.78141C31.1481 3.96094 30.0353 3.5 28.875 3.5C22.75 3.5 21 12.25 21 12.25Z" stroke="#FFAA00" stroke-width="3.42944" stroke-linecap="round" stroke-linejoin="round"/>
</svg>
