<svg width="42" height="42" viewBox="0 0 42 42" fill="none" xmlns="http://www.w3.org/2000/svg">
<path d="M28 16.1C28 23.0588 15.75 35 15.75 35C15.75 35 3.5 23.0588 3.5 16.1C3.5 9.14121 8.98451 3.5 15.75 3.5C22.5155 3.5 28 9.14121 28 16.1Z" stroke="#4E61F6" stroke-width="3.42944"/>
<path d="M15.75 17.5C16.7165 17.5 17.5 16.7165 17.5 15.75C17.5 14.7835 16.7165 14 15.75 14C14.7835 14 14 14.7835 14 15.75C14 16.7165 14.7835 17.5 15.75 17.5Z" fill="#131927" stroke="#4E61F6" stroke-width="3.42944" stroke-linecap="round" stroke-linejoin="round"/>
<path d="M28 33.25H33.25M38.5 33.25H33.25M33.25 33.25V28M33.25 33.25V38.5" stroke="#FFAA00" stroke-width="3.42944" stroke-linecap="round" stroke-linejoin="round"/>
</svg>
