<svg width="42" height="42" viewBox="0 0 42 42" fill="none" xmlns="http://www.w3.org/2000/svg">
<g clip-path="url(#clip0_43_2689)">
<path d="M17.4167 16.8398L20.1441 11.0568C20.4943 10.3144 21.5057 10.3144 21.8559 11.0568L24.5833 16.8398L30.6825 17.7728C31.4651 17.8925 31.777 18.8993 31.2105 19.4769L26.7978 23.9751L27.8392 30.33C27.973 31.1461 27.1545 31.7684 26.4543 31.383L21 28.3809L15.5457 31.383C14.8455 31.7684 14.027 31.1461 14.1608 30.33L15.2022 23.9751L10.7895 19.4769C10.223 18.8993 10.5349 17.8925 11.3174 17.7728L17.4167 16.8398Z" stroke="#4E61F6" stroke-width="3.42944" stroke-linecap="round" stroke-linejoin="round"/>
<path d="M38.5 21L40.25 21" stroke="#FFAA00" stroke-width="3.42944" stroke-linecap="round" stroke-linejoin="round"/>
<path d="M21 3.5V1.75" stroke="#FFAA00" stroke-width="3.42944" stroke-linecap="round" stroke-linejoin="round"/>
<path d="M21 40.25V38.5" stroke="#FFAA00" stroke-width="3.42944" stroke-linecap="round" stroke-linejoin="round"/>
<path d="M35 35L33.25 33.25" stroke="#FFAA00" stroke-width="3.42944" stroke-linecap="round" stroke-linejoin="round"/>
<path d="M35 7L33.25 8.75" stroke="#FFAA00" stroke-width="3.42944" stroke-linecap="round" stroke-linejoin="round"/>
<path d="M7 35L8.75 33.25" stroke="#FFAA00" stroke-width="3.42944" stroke-linecap="round" stroke-linejoin="round"/>
<path d="M7 7L8.75 8.75" stroke="#FFAA00" stroke-width="3.42944" stroke-linecap="round" stroke-linejoin="round"/>
<path d="M1.75 21L3.5 21" stroke="#FFAA00" stroke-width="3.42944" stroke-linecap="round" stroke-linejoin="round"/>
</g>
<defs>
<clipPath id="clip0_43_2689">
<rect width="42" height="42" fill="white"/>
</clipPath>
</defs>
</svg>
